<svg width="25" height="24" viewBox="0 0 25 24" fill="none" xmlns="http://www.w3.org/2000/svg">
<path d="M12.5 8.75C10.706 8.75 9.25 10.206 9.25 12C9.25 13.794 10.706 15.25 12.5 15.25C14.294 15.25 15.75 13.794 15.75 12C15.75 10.206 14.294 8.75 12.5 8.75Z" fill="#EB7F86"/>
<path fill-rule="evenodd" clip-rule="evenodd" d="M12.5 2C18.02 2 22.5 6.48 22.5 12C22.5 17.52 18.02 22 12.5 22C6.98 22 2.5 17.52 2.5 12C2.5 6.48 6.98 2 12.5 2ZM12.5 4C8.08457 4 4.5 7.58457 4.5 12C4.5 16.4154 8.08457 20 12.5 20C16.9154 20 20.5 16.4154 20.5 12C20.5 7.58457 16.9154 4 12.5 4Z" fill="#EB7F86"/>
</svg>
